<?xml version="1.0" encoding="UTF-8" standalone="no"?>
<svg
   xmlns:dc="http://purl.org/dc/elements/1.1/"
   xmlns:cc="http://creativecommons.org/ns#"
   xmlns:rdf="http://www.w3.org/1999/02/22-rdf-syntax-ns#"
   xmlns:svg="http://www.w3.org/2000/svg"
   xmlns="http://www.w3.org/2000/svg"
   xmlns:sodipodi="http://sodipodi.sourceforge.net/DTD/sodipodi-0.dtd"
   xmlns:inkscape="http://www.inkscape.org/namespaces/inkscape"
   id="SVGRoot"
   version="1.1"
   viewBox="0 0 700 800"
   height="800px"
   width="700px"
   sodipodi:docname="giftPlain.svg"
   inkscape:version="0.92.4 (5da689c313, 2019-01-14)">
  <sodipodi:namedview
     pagecolor="#ffffff"
     bordercolor="#666666"
     borderopacity="1"
     objecttolerance="10"
     gridtolerance="10"
     guidetolerance="10"
     inkscape:pageopacity="0"
     inkscape:pageshadow="2"
     inkscape:window-width="1920"
     inkscape:window-height="1017"
     id="namedview18"
     showgrid="false"
     inkscape:zoom="0.834386"
     inkscape:cx="341.26242"
     inkscape:cy="359.50271"
     inkscape:window-x="-8"
     inkscape:window-y="-8"
     inkscape:window-maximized="1"
     inkscape:current-layer="SVGRoot" />
  <defs
     id="defs42" />
  <metadata
     id="metadata45">
    <rdf:RDF>
      <cc:Work
         rdf:about="">
        <dc:format>image/svg+xml</dc:format>
        <dc:type
           rdf:resource="http://purl.org/dc/dcmitype/StillImage" />
        <dc:title />
      </cc:Work>
    </rdf:RDF>
  </metadata>
  <path
     inkscape:connector-curvature="0"
     style="fill:#ff0000;stroke:none;stroke-width:1px;stroke-linecap:butt;stroke-linejoin:miter;stroke-opacity:1"
     d="M 360.27919,5.805273 19.67282,219.72997 347.13298,440.82534 680.56873,224.51042 Z"
     id="path12" />
  <path
     inkscape:connector-curvature="0"
     style="fill:#ffd1aa;fill-opacity:1;stroke:none;stroke-width:1px;stroke-linecap:butt;stroke-linejoin:miter;stroke-opacity:1"
     d="m 347.13298,440.82534 0.003,175.0853 333.54324,-209.59797 -0.11049,-181.80225 z"
     id="path14"
     sodipodi:nodetypes="ccccc" />
  <path
     inkscape:connector-curvature="0"
     style="fill:#c83737;fill-opacity:1;stroke:none;stroke-width:1px;stroke-linecap:butt;stroke-linejoin:miter;stroke-opacity:1"
     d="m 19.67282,219.72997 327.46016,221.09537 0.003,175.0853 L 19.705495,400.00663 Z"
     id="path16"
     sodipodi:nodetypes="ccccc" />
  <path
     inkscape:connector-curvature="0"
     style="fill:#000080;stroke:none;stroke-width:1px;stroke-linecap:butt;stroke-linejoin:miter;stroke-opacity:1"
     d="m 347.13598,615.91064 -0.003,175.37819 L 19.317132,574.86261 19.705495,400.00663 Z"
     id="path18"
     sodipodi:nodetypes="ccccc" />
  <path
     inkscape:connector-curvature="0"
     style="fill:#00c9ff;fill-opacity:1;stroke:none;stroke-width:1px;stroke-linecap:butt;stroke-linejoin:miter;stroke-opacity:1"
     d="M 347.13598,615.91064 680.67922,400.31267 680.37964,579.16474 347.13298,791.28883 Z"
     id="path20"
     sodipodi:nodetypes="ccccc" />
  <g
     aria-label="Gift"
     transform="scale(0.99342936,1.0066141)"
     style="font-style:normal;font-variant:normal;font-weight:normal;font-stretch:normal;font-size:120.19667053px;line-height:1.25;font-family:'Brush Script Std';-inkscape-font-specification:'Brush Script Std';letter-spacing:0px;word-spacing:0px;fill:#ffffee;fill-opacity:1;stroke:none;stroke-width:3.00491667"
     id="text892">
    <path
       inkscape:connector-curvature="0"
       d="m 299.07027,222.0973 0.24039,0.2404 c -4.92806,10.5773 -11.89947,20.31323 -19.23146,29.68858 -11.77928,5.76944 -22.47678,16.46694 -22.11619,24.52012 0.1202,2.64432 1.44236,5.04826 4.44728,5.04826 8.17337,0 26.32307,-19.71226 31.25113,-26.44327 l 19.35166,-13.10144 c 16.34675,-11.05809 15.50537,-12.01967 15.74577,-17.30832 l -26.44327,17.06793 -0.24039,-0.2404 c 9.25514,-14.54379 16.82753,-25.0009 21.99599,-35.45801 0.48078,-0.96158 1.68275,-3.00492 1.68275,-4.20689 0,-1.56255 -1.68275,-2.52413 -3.00492,-3.24531 -0.96157,-0.60098 -3.3655,-2.04334 -4.44727,-2.04334 -1.08177,0 -2.04335,0.84138 -2.76453,1.56256 l -43.99198,33.41467 c -2.04334,1.56256 -5.64924,3.7261 -8.17337,3.7261 -2.64433,0 -3.6059,-2.04335 -4.20688,-4.56748 -1.32217,-6.00983 20.07284,-35.33782 56.01164,-45.91512 l 0.2404,0.24039 -5.04826,4.08669 c -0.84138,0.60098 -3.24531,2.28373 -3.24531,3.4857 0,0.96157 0.60098,1.68275 1.56255,1.68275 1.08177,0 3.48571,-0.12019 20.07285,-10.93789 2.40393,-1.56256 4.92806,-3.36551 4.92806,-6.49062 0,-2.28374 -0.84137,-5.88964 -2.16354,-7.69259 -1.32216,-1.80295 -2.64433,-2.28374 -4.92806,-2.04334 -33.17428,3.72609 -54.92988,20.67382 -63.22345,29.80877 -6.97141,7.2118 -14.78419,19.95265 -14.78419,30.28956 0,8.41377 3.96649,15.74576 13.46203,16.82753 6.85121,0.84138 17.66891,-7.81278 23.67874,-12.26006 z"
       style="stroke-width:3.00491667;fill:#ffffee;fill-opacity:1"
       id="path40" />
    <path
       inkscape:connector-curvature="0"
       d="m 361.48427,229.5495 c -4.80787,3.4857 -11.05809,9.85612 -17.42852,9.85612 -5.52905,0 -7.332,-2.64432 -6.37042,-7.57239 5.04826,-3.4857 16.94773,-14.1832 16.94773,-20.19304 0,-2.64432 -3.24531,-3.3655 -5.28865,-3.3655 -7.2118,0 -22.23639,14.3034 -22.23639,28.96739 0,6.13003 3.24531,14.30341 10.33691,14.30341 9.13495,0 19.71226,-10.8177 25.12111,-17.42852 z m -5.64924,-23.67875 c 5.16845,0 9.61573,-5.88963 9.61573,-10.6975 0,-2.16354 -1.80295,-3.7261 -3.96649,-3.7261 -4.68767,0 -10.45711,4.32708 -10.45711,9.25515 0,2.88472 1.92315,5.16845 4.80787,5.16845 z"
       style="stroke-width:3.00491667;fill:#ffffee;fill-opacity:1"
       id="path42" />
    <path
       inkscape:connector-curvature="0"
       d="m 364.6507,269.81538 c -1.80295,-3.4857 -2.88472,-6.85121 -2.40393,-10.6975 0.48079,-3.96649 2.40393,-8.29357 5.52905,-13.58223 2.88472,1.08178 4.80787,1.20197 8.65416,0.96158 1.08177,9.01475 -4.32708,18.39009 -11.77928,23.31815 z m 34.73684,-72.2382 c 2.64433,-3.72609 6.25023,-12.13986 6.25023,-16.82753 0,-1.92315 -0.24039,-5.28865 -2.88472,-5.28865 -6.13003,0 -21.6354,28.6068 -24.76051,34.49644 -3.7261,6.85121 -7.57239,12.50045 -14.664,16.34675 -3.4857,1.92314 -6.73101,3.24531 -6.73101,8.05317 0,3.00492 1.56255,4.80787 3.4857,6.85121 -3.24531,6.85122 -8.41377,16.34675 -8.41377,24.15954 0,3.96649 1.56256,15.14478 7.09161,14.3034 8.77436,-1.32216 25.60189,-14.5438 26.56346,-28.8472 0.1202,-2.16354 0.36059,-4.32708 -0.12019,-6.61082 5.88963,-2.88472 10.6975,-7.0916 15.50537,-11.41868 l -1.32217,-4.44728 -16.22655,10.09652 c -1.56255,-3.4857 -2.76452,-7.45219 -6.25022,-9.49554 z"
       style="stroke-width:3.00491667;fill:#ffffee;fill-opacity:1"
       id="path44" />
    <path
       inkscape:connector-curvature="0"
       d="m 433.58912,199.01954 c 1.20197,-1.68275 4.68767,-5.64924 4.68767,-7.81278 0,-1.92315 -2.28374,-2.28374 -3.84629,-2.28374 -6.97141,0 -9.61574,5.64925 -13.22164,10.57731 -12.86104,0.48079 -13.82261,2.40393 -20.31323,12.98124 l -1.32217,2.16354 c 6.37043,-0.96157 4.08669,-0.48079 11.41869,-0.48079 -4.44728,7.57239 -11.0581,13.70242 -18.2699,19.23147 l 1.32217,4.56747 6.13003,-4.92806 0.24039,0.24039 c -1.56256,3.48571 -3.12511,8.05318 -3.12511,12.01967 0,4.80787 2.88472,8.05318 7.57239,8.05318 10.21671,0 23.19795,-12.86105 30.28956,-19.35167 l -0.60099,-5.28865 c -12.50045,8.89455 -16.82753,12.50045 -20.67382,12.50045 -2.76453,0 -3.6059,-1.56255 -3.6059,-4.20688 0,-7.2118 6.85121,-17.06793 10.93789,-22.35658 13.22164,0.84138 14.18321,-3.6059 19.83245,-15.02458 z"
       style="stroke-width:3.00491667;fill:#ffffee;fill-opacity:1"
       id="path46" />
  </g>
  <text
     xml:space="preserve"
     style="font-style:normal;font-weight:normal;font-size:40px;line-height:1.25;font-family:sans-serif;letter-spacing:0px;word-spacing:0px;fill:#000000;fill-opacity:1;stroke:none"
     x="-807.14288"
     y="352.85715"
     id="text896"><tspan
       id="tspan894"
       x="-807.14288"
       y="389.35037" /></text>
</svg>
